<svg width="887" height="304" viewBox="0 0 887 304" fill="none" xmlns="http://www.w3.org/2000/svg">
<rect width="7.85169" height="18.2651" transform="matrix(0.928056 -0.372442 0.362555 0.931962 22.229 175.924)" fill="#6AA9F8"/>
<rect width="7.85169" height="18.2651" transform="matrix(0.928056 -0.372442 0.362555 0.931962 22.229 31.9999)" fill="#6AA9F8"/>
<rect width="7.85169" height="18.2651" transform="matrix(0.968079 0.250647 -0.260924 0.96536 4.76587 284.173)" fill="#6AA9F8"/>
<rect width="7.85169" height="18.2651" transform="matrix(0.928056 -0.372442 0.362555 0.931962 202.229 185.924)" fill="#545F6C"/>
<rect width="9.85128" height="14.3235" transform="matrix(0.981275 0.192614 -0.186924 0.982374 107.229 30.9999)" fill="#6AA9F8"/>
<rect width="9.86666" height="22.9524" transform="matrix(0.928056 -0.372442 0.362555 0.931962 86.229 166.393)" fill="#6AA9F8" fillOpacity="0.31"/>
<rect width="9.89881" height="22.879" transform="matrix(0.806481 0.591261 -0.579292 0.81512 154.483 229)" fill="#187EFF"/>
<rect width="5.23538" height="12.2279" transform="matrix(-0.996986 -0.0775807 -0.0752183 0.997167 172.118 173.124)" fill="#6AA9F8"/>
<rect width="7.85169" height="18.2651" transform="matrix(0.928056 -0.372442 0.362555 0.931962 672.562 2.92429)" fill="#6AA9F8"/>
<rect width="7.85169" height="18.2651" transform="matrix(0.928056 -0.372442 0.362555 0.931962 872.563 15.9243)" fill="#6AA9F8"/>
<rect width="7.85169" height="18.2651" transform="matrix(0.928056 -0.372442 0.362555 0.931962 587.562 22.9243)" fill="#545F6C"/>
<rect width="7.85169" height="18.2651" transform="matrix(0.928056 -0.372442 0.362555 0.931962 787.562 35.9243)" fill="#545F6C"/>
<rect width="9.85128" height="14.3235" transform="matrix(0.981275 0.192614 -0.186924 0.982374 438.24 22)" fill="#6AA9F8"/>
<rect width="9.85128" height="14.3235" transform="matrix(0.981275 0.192614 -0.186924 0.982374 638.24 35)" fill="#6AA9F8"/>
<rect width="9.89881" height="22.879" transform="matrix(0.806481 0.591261 -0.579292 0.81512 372.585 14.2818)" fill="#187EFF"/>
<rect width="9.89881" height="22.879" transform="matrix(0.806481 0.591261 -0.579292 0.81512 572.585 27.2818)" fill="#187EFF"/>
<rect width="5.23538" height="12.2279" transform="matrix(-0.996986 -0.0775807 -0.0752183 0.997167 302.368 36.4062)" fill="#6AA9F8"/>
<rect width="5.23538" height="12.2279" transform="matrix(-0.996986 -0.0775807 -0.0752183 0.997167 502.368 49.4062)" fill="#6AA9F8"/>
</svg>
