<svg width="217" height="275" viewBox="0 0 217 275" fill="none" xmlns="http://www.w3.org/2000/svg">
<rect width="7.85169" height="18.2651" transform="matrix(0.928056 -0.372442 0.362555 0.931962 23 146.924)" fill="#6AA9F8"/>
<rect width="7.85169" height="18.2651" transform="matrix(0.928056 -0.372442 0.362555 0.931962 23 2.99997)" fill="#6AA9F8"/>
<rect width="7.85169" height="18.2651" transform="matrix(0.968079 0.250647 -0.260924 0.96536 5.53687 255.173)" fill="#6AA9F8"/>
<rect width="7.85169" height="18.2651" transform="matrix(0.928056 -0.372442 0.362555 0.931962 203 156.924)" fill="#545F6C"/>
<rect width="9.85128" height="14.3235" transform="matrix(0.981275 0.192614 -0.186924 0.982374 108 1.99997)" fill="#6AA9F8"/>
<rect width="9.86666" height="22.9524" transform="matrix(0.928056 -0.372442 0.362555 0.931962 87 137.393)" fill="#6AA9F8" fillOpacity="0.31"/>
<rect width="9.89881" height="22.879" transform="matrix(0.806481 0.591261 -0.579292 0.81512 155.254 200)" fill="#187EFF"/>
<rect width="5.23538" height="12.2279" transform="matrix(-0.996986 -0.0775807 -0.0752183 0.997167 172.889 144.124)" fill="#6AA9F8"/>
</svg>
