<svg width="80" height="80" viewBox="0 0 80 80" fill="none" xmlns="http://www.w3.org/2000/svg">
<path d="M16.9795 0.0783081H20.5783V3.63393H23.8703V0.0783081H27.4694V10.8453H23.8706V7.23971H20.5786V10.8453H16.9798V0.0783081H16.9795ZM32.2017 3.64893H29.0338V0.0783081H38.9703V3.64893H35.8008V10.8453H32.202V3.64893H32.2017ZM40.5472 0.0783081H44.3003L46.6083 3.86159L48.9144 0.0783081H52.668V10.8453H49.0839V5.50878L46.6081 9.3369H46.5464L44.0689 5.50878V10.8453H40.5472V0.0783081ZM54.4594 0.0783081H58.0591V7.28659H63.1202V10.8453H54.4594V0.0783081ZM11.7167 15.7697L16.8645 73.5092L39.9652 79.9217L63.1298 73.5L68.2831 15.7696L11.7167 15.7697ZM57.5452 29.4719L57.2228 33.0621L57.0813 34.6539H57.058H40H39.9753H29.9822L30.6294 41.905H39.9753H40H54.5281H56.4366L56.2638 43.8069L54.5997 62.4506L54.4931 63.6463L40 67.6633V67.6646L39.9675 67.6738L25.4614 63.6466L24.4691 52.5277H27.7456H31.578L32.0822 58.1755L39.9688 60.3055L39.9753 60.3035V60.3028L47.8739 58.1716L48.6953 48.9871H40H39.9753H24.1528L22.4123 29.4719L22.2428 27.5724H39.9753H40H57.7147L57.5452 29.4719Z" fill="black"/>
</svg>
