<svg width="165" height="87" viewBox="0 0 165 87" fill="none" xmlns="http://www.w3.org/2000/svg">
<line x1="131.23" y1="57.9762" x2="160.004" y2="57.9762" stroke="#5E5E5E"/>
<line x1="96.8872" y1="57.9762" x2="125.661" y2="57.9762" stroke="#5E5E5E"/>
<line x1="131.595" y1="0.586252" x2="159.441" y2="30.2885" stroke="#6A6A6A"/>
<line x1="97.4503" y1="29.3606" x2="124.368" y2="0.586619" stroke="#6A6A6A"/>
<line x1="97.2735" y1="57.223" x2="125.087" y2="85.0403" stroke="#6A6A6A"/>
<line x1="159.898" y1="57.9015" x2="131.584" y2="86.2152" stroke="#6A6A6A"/>
<line x1="131.23" y1="30.1304" x2="160.004" y2="30.1304" stroke="#5E5E5E"/>
<line x1="96.8872" y1="30.1304" x2="125.661" y2="30.1304" stroke="#5E5E5E"/>
<rect x="96.9492" y="0.5" width="28.4483" height="85.322" stroke="#969696"/>
<rect x="131.047" y="0.5" width="28.4483" height="85.322" stroke="#969696"/>
<path fill-rule="evenodd" clip-rule="evenodd" d="M62.3513 48.7399V85.322V86.322H63.3513H90.7996H91.7996V85.322V1V0H90.7996H62.3513L8.73292 85.322L8.10449 86.322H9.28556H37.5528L61.3513 48.4518L62.3513 46.8605V48.7399ZM37.0001 85.322L61.5046 46.3285L63.3513 43.3898V46.8605V85.322H90.7996V1H62.9039L9.91398 85.322H37.0001Z" fill="#969696"/>
<path d="M58 43.6409H67.2819" stroke="white"/>
<path d="M62.6411 39L62.6411 48.2819" stroke="white"/>
</svg>
