<svg width="38" height="38" viewBox="0 0 38 38" fill="none" xmlns="http://www.w3.org/2000/svg">
<path d="M19 26.9167C14.63 26.9167 11.0833 23.37 11.0833 19C11.0833 14.63 14.63 11.0833 19 11.0833C23.37 11.0833 26.9167 14.63 26.9167 19C26.9167 23.37 23.37 26.9167 19 26.9167ZM19 14.25C16.3875 14.25 14.25 16.3875 14.25 19C14.25 21.6125 16.3875 23.75 19 23.75C21.6125 23.75 23.75 21.6125 23.75 19C23.75 16.3875 21.6125 14.25 19 14.25ZM20.5833 6.33333V1.58333C20.5833 0.7125 19.8708 0 19 0C18.1292 0 17.4167 0.7125 17.4167 1.58333V6.33333C17.4167 7.20417 18.1292 7.91667 19 7.91667C19.8708 7.91667 20.5833 7.20417 20.5833 6.33333ZM20.5833 36.4167V31.6667C20.5833 30.7958 19.8708 30.0833 19 30.0833C18.1292 30.0833 17.4167 30.7958 17.4167 31.6667V36.4167C17.4167 37.2875 18.1292 38 19 38C19.8708 38 20.5833 37.2875 20.5833 36.4167ZM7.91667 19C7.91667 18.1292 7.20417 17.4167 6.33333 17.4167H1.58333C0.7125 17.4167 0 18.1292 0 19C0 19.8708 0.7125 20.5833 1.58333 20.5833H6.33333C7.20417 20.5833 7.91667 19.8708 7.91667 19ZM38 19C38 18.1292 37.2875 17.4167 36.4167 17.4167H31.6667C30.7958 17.4167 30.0833 18.1292 30.0833 19C30.0833 19.8708 30.7958 20.5833 31.6667 20.5833H36.4167C37.2875 20.5833 38 19.8708 38 19ZM10.6242 10.6242C11.2417 10.0067 11.2417 9.00917 10.6242 8.39167L7.4575 5.225C6.84 4.6075 5.8425 4.6075 5.225 5.225C4.6075 5.8425 4.6075 6.84 5.225 7.4575L8.39167 10.6242C8.70833 10.9408 9.10417 11.0833 9.51583 11.0833C9.9275 11.0833 10.3233 10.925 10.64 10.6242H10.6242ZM32.7908 32.7908C33.4083 32.1733 33.4083 31.1758 32.7908 30.5583L29.6242 27.3917C29.0067 26.7742 28.0092 26.7742 27.3917 27.3917C26.7742 28.0092 26.7742 29.0067 27.3917 29.6242L30.5583 32.7908C30.875 33.1075 31.2708 33.25 31.6825 33.25C32.0942 33.25 32.49 33.0917 32.8067 32.7908H32.7908ZM7.4575 32.7908L10.6242 29.6242C11.2417 29.0067 11.2417 28.0092 10.6242 27.3917C10.0067 26.7742 9.00917 26.7742 8.39167 27.3917L5.225 30.5583C4.6075 31.1758 4.6075 32.1733 5.225 32.7908C5.54167 33.1075 5.9375 33.25 6.34917 33.25C6.76083 33.25 7.15667 33.0917 7.47333 32.7908H7.4575ZM29.6242 10.6242L32.7908 7.4575C33.4083 6.84 33.4083 5.8425 32.7908 5.225C32.1733 4.6075 31.1758 4.6075 30.5583 5.225L27.3917 8.39167C26.7742 9.00917 26.7742 10.0067 27.3917 10.6242C27.7083 10.9408 28.1042 11.0833 28.5158 11.0833C28.9275 11.0833 29.3233 10.925 29.64 10.6242H29.6242Z" fill="black"/>
</svg>
