<svg width="80" height="80" viewBox="0 0 80 80" fill="none" xmlns="http://www.w3.org/2000/svg">
<path d="M31.885 7.29409V10.7344H23.0878V0.0783081H31.885V3.84862H26.8581V7.29409H31.885ZM40.9283 3.84862H44.4427V0.0783081H35.6445C35.6445 0.0783081 35.6445 1.97081 35.6445 3.84862C36.8216 5.02565 37.4353 5.58909 39.1377 7.29143C38.1425 7.29143 35.6445 7.29472 35.6445 7.29472V10.7344H44.4427V7.29409L40.9283 3.84862ZM53.3978 3.84862H56.9119V0.0783081H48.1141C48.1141 0.0783081 48.1141 1.97081 48.1141 3.84862C49.2908 5.02565 49.9049 5.58909 51.607 7.29143C50.6125 7.29143 48.1141 7.29472 48.1141 7.29472V10.7344H56.912V7.29409L53.3978 3.84862ZM68.4992 15.7988L63.155 73.6872L39.9999 79.9216L16.8442 73.6872L11.5008 15.7988H68.4992ZM57.7308 27.5694H39.9789H21.9133L22.7772 34.5599H39.9789H40.9452L39.9789 34.9621L23.4059 41.8647L23.9556 48.6975L39.9789 48.7496L48.5669 48.7769L48.0167 57.888L39.9789 60.1511V60.1439L39.913 60.1621L32.1499 58.2024L31.6788 52.5469H31.6531H24.4524H24.427L25.3695 63.465L39.9789 67.7852V67.7774L40.0052 67.7852L54.5364 63.5436L56.4219 41.8649H39.9789H39.9383L39.9789 41.8474L57.0236 34.56L57.7308 27.5694Z" fill="black"/>
</svg>
