<svg width="80" height="80" viewBox="0 0 80 80" fill="none" xmlns="http://www.w3.org/2000/svg">
<path fill-rule="evenodd" clip-rule="evenodd" d="M37.3336 10.9333H29.4669C25.1223 10.9333 21.6003 14.4553 21.6003 18.8C21.6003 23.1446 25.1223 26.6666 29.4669 26.6666H37.3336V10.9333ZM37.3336 5.59998H42.6669H50.5336C57.824 5.59998 63.7333 11.5098 63.7333 18.8C63.7333 23.1021 61.6757 26.9235 58.4901 29.3333C61.6757 31.7432 63.7333 35.5646 63.7333 39.8667C63.7333 47.1568 57.824 53.0667 50.5336 53.0667C47.5859 53.0667 44.8639 52.1005 42.6669 50.4676V53.0667V60.9334C42.6669 68.2235 36.7571 74.1334 29.4669 74.1334C22.1767 74.1334 16.2669 68.2235 16.2669 60.9334C16.2669 56.631 18.325 52.8098 21.5102 50.4C18.325 47.9901 16.2669 44.1687 16.2669 39.8667C16.2669 35.5646 18.325 31.7432 21.5103 29.3334C18.325 26.9235 16.2669 23.1021 16.2669 18.8C16.2669 11.5098 22.1767 5.59998 29.4669 5.59998H37.3336ZM42.6669 10.9333V26.6666H50.5336C54.8784 26.6666 58.4 23.1446 58.4 18.8C58.4 14.4553 54.8784 10.9333 50.5336 10.9333H42.6669ZM29.4669 47.7333H37.3336V39.887V39.8667V39.8464V32H29.4669C25.1223 32 21.6003 35.5221 21.6003 39.8667C21.6003 44.2009 25.1054 47.7165 29.4357 47.7333L29.4669 47.7333ZM21.6003 60.9334C21.6003 56.599 25.1054 53.0835 29.4357 53.0666L29.4669 53.0667H37.3336V60.9334C37.3336 65.2779 33.8116 68.8 29.4669 68.8C25.1223 68.8 21.6003 65.2779 21.6003 60.9334ZM42.6669 39.851C42.6754 35.5136 46.1942 32 50.5336 32C54.8784 32 58.4 35.5221 58.4 39.8667C58.4 44.2113 54.8784 47.7334 50.5336 47.7334C46.1942 47.7334 42.6754 44.2198 42.6669 39.8824V39.851Z" fill="black"/>
</svg>
