<svg width="70" height="70" viewBox="0 0 70 70" fill="none" xmlns="http://www.w3.org/2000/svg">
<g clip-path="url(#clip0_3_39)">
<path fill-rule="evenodd" clip-rule="evenodd" d="M0 0H70V70H0V0ZM53.5112 58.6822C50.2667 58.6822 48.4321 56.9899 47.0222 54.6878L41.6765 57.7935C43.6077 61.6088 47.5545 64.5199 53.6635 64.5199C59.911 64.5199 64.5633 61.2757 64.5633 55.3534C64.5633 49.8601 61.4078 47.4165 55.8189 45.0199L54.1745 44.3155C51.3523 43.0935 50.1299 42.2946 50.1299 40.3212C50.1299 38.7246 51.3511 37.5022 53.2779 37.5022C55.1667 37.5022 56.3833 38.2988 57.5111 40.3212L62.6334 37.0323C60.4666 33.2211 57.4601 31.7654 53.2779 31.7654C47.4034 31.7654 43.6444 35.5212 43.6444 40.4545C43.6444 45.81 46.7976 48.3435 51.5445 50.3656L53.1889 51.0711C56.189 52.3833 57.9778 53.1822 57.9778 55.4377C57.9778 57.3201 56.2365 58.6822 53.5112 58.6822ZM28.0189 58.641C25.7589 58.641 24.8189 57.0911 23.7855 55.2577L18.4311 58.4996C19.9822 61.7823 23.0322 64.5079 28.2989 64.5079C34.1276 64.5079 38.1211 61.4078 38.1211 54.5968V32.1411H31.5435V54.5078C31.5435 57.7955 30.1799 58.641 28.0189 58.641Z" fill="black"/>
</g>
<defs>
<clipPath id="clip0_3_39">
<rect width="70" height="70" fill="white"/>
</clipPath>
</defs>
</svg>
