<svg width="80" height="80" viewBox="0 0 80 80" fill="none" xmlns="http://www.w3.org/2000/svg">
<g clip-path="url(#clip0_3_18)">
<path d="M40 33.7C41.23 33.7001 42.4324 34.064 43.456 34.7461C44.4796 35.4281 45.2785 36.3977 45.7522 37.5328C46.2259 38.6679 46.3531 39.9178 46.118 41.1251C45.8828 42.3324 45.2957 43.4431 44.4306 44.3175C43.5656 45.1918 42.4611 45.7907 41.2564 46.0387C40.0517 46.2867 38.8005 46.1727 37.6604 45.7111C36.5203 45.2495 35.5423 44.461 34.8494 43.4447C34.1565 42.4285 33.7798 41.2299 33.7667 40C33.7623 39.1771 33.92 38.3613 34.2309 37.5993C34.5418 36.8373 34.9997 36.144 35.5785 35.559C36.1573 34.974 36.8457 34.5087 37.6044 34.1898C38.363 33.8708 39.177 33.7044 40 33.7ZM24.5667 66.6667C26.6667 67.9334 31.2333 66 36.5667 61C34.7841 58.9743 33.1042 56.8606 31.5333 54.6667C28.8447 54.3656 26.1742 53.9205 23.5333 53.3333C21.8333 60.4667 22.4667 65.3667 24.5667 66.6667ZM26.9333 47.5333L25.9667 45.8333C25.5898 46.7696 25.2671 47.7267 25 48.7C25.9 48.9 26.9 49.0667 27.9333 49.2334L26.9333 47.5333ZM48.7333 45L51.4333 40L48.7333 35C47.7333 33.2333 46.6667 31.6667 45.7 30.1C43.9 30 42 30 40 30C38 30 36.1 30 34.3 30C33.3333 31.5667 32.2667 33.1333 31.2667 34.9L28.5667 40L31.2667 45C32.2667 46.7667 33.3333 48.3334 34.3 49.9C36.1 49.9 38 49.9 40 49.9C42 49.9 43.9 49.9 45.7 49.9C46.6667 48.3334 47.7333 46.7667 48.7333 45ZM40 22.6C39.3667 23.3333 38.7 24.1 38.0333 25H41.9667C41.3 24.1 40.6333 23.3333 40 22.6ZM40 57.4C40.6333 56.6667 41.3 55.9 41.9667 55H38.0333C38.7 55.9 39.3667 56.6667 40 57.4ZM55.4 13.3333C53.3333 12.0667 48.7333 14 43.4333 19C45.2159 21.0257 46.8958 23.1394 48.4667 25.3333C51.1528 25.5904 53.8233 25.991 56.4667 26.5333C58.1667 19.4 57.5333 14.5 55.4 13.2M53.0667 32.3333L54.0333 34.0333C54.4101 33.0971 54.7329 32.14 55 31.1667C54.1 30.9667 53.1 30.8 52.0667 30.6333L53.0667 32.3333ZM57.9 9.00001C62.8 11.8 63.3333 19.1667 61.2333 27.7667C69.7 30.2667 75.8 34.4333 75.8 40.0333C75.8 45.6333 69.7 49.8 61.2333 52.3C63.3 60.9 62.7667 68.2667 57.9 71.0667C53.0333 73.8667 46.4 70.6667 40 64.5667C33.6 70.6667 26.9667 73.8667 22.0667 71.0667C17.1667 68.2667 16.6667 61.0667 18.7333 52.3C10.2667 49.8 4.16666 45.6333 4.16666 40.0333C4.16666 34.4333 10.2667 30.2333 18.7333 27.7333C16.6667 19.1333 17.2 11.7667 22.0667 8.96668C26.9333 6.16668 33.6 9.36668 40 15.4667C46.4 9.36668 53.0333 6.16668 57.9 8.96668M56.9333 40C58.091 42.4538 59.1147 44.9686 60 47.5333C67 45.4333 70.9333 42.4333 70.9333 40C70.9333 37.5667 66.9 34.5667 60 32.4667C59.1147 35.0314 58.091 37.5462 56.9333 40ZM23.0667 40C21.909 37.5462 20.8853 35.0314 20 32.4667C13 34.5667 9.06666 37.5667 9.06666 40C9.06666 42.4333 13.1 45.4333 20 47.5333C20.8853 44.9686 21.909 42.4538 23.0667 40ZM53.0667 47.5333L52.0667 49.2334C53.1 49.2334 54.1 48.9 55 48.7C54.7329 47.7267 54.4101 46.7696 54.0333 45.8333L53.0667 47.5333ZM43.3333 61C48.6333 66 53.3333 67.9334 55.3 66.6667C57.2667 65.4 58.0667 60.6 56.3667 53.3333C53.7233 53.8757 51.0528 54.2763 48.3667 54.5334C46.7994 56.7727 45.1195 58.9311 43.3333 61ZM26.9333 32.4667L27.9333 30.7667C26.9 30.7667 25.9 31.1 25 31.3C25.2671 32.2733 25.5898 33.2304 25.9667 34.1667L26.9333 32.4667ZM36.6667 19C31.2667 14 26.6667 12.0667 24.5667 13.3333C22.4667 14.6 21.8333 19.4 23.5333 26.6667C26.1767 26.1243 28.8472 25.7237 31.5333 25.4667C33.133 23.225 34.8464 21.0666 36.6667 19Z" fill="black"/>
</g>
<defs>
<clipPath id="clip0_3_18">
<rect width="80" height="80" fill="white"/>
</clipPath>
</defs>
</svg>
