<svg width="80" height="80" viewBox="0 0 80 80" fill="none" xmlns="http://www.w3.org/2000/svg">
<path d="M47.8075 34.7542C46.0585 34.7542 44.7558 35.613 44.7558 37.6799C44.7558 39.2371 45.6142 40.3184 47.7132 40.3184C49.4922 40.3184 50.7006 39.27 50.7006 37.6156C50.7006 35.7405 49.6194 34.7542 47.8075 34.7542ZM44.3105 49.3485C43.8966 49.8563 43.4842 50.3962 43.4842 51.0329C43.4842 52.3038 45.1047 52.6863 47.3308 52.6863C49.1748 52.6863 51.6866 52.557 51.6866 50.8426C51.6866 49.8234 50.4782 49.7606 48.9512 49.6649L44.3105 49.3485ZM53.7209 34.8503C54.2922 35.5816 54.8972 36.5993 54.8972 38.0616C54.8972 41.5904 52.1311 43.6565 48.1264 43.6565C47.1079 43.6565 46.1859 43.5297 45.6142 43.3708L44.5648 45.0556L47.68 45.2459C53.1806 45.5966 56.4223 45.7559 56.4223 49.9823C56.4223 53.6393 53.2121 55.7047 47.68 55.7047C41.9258 55.7047 39.7322 54.2424 39.7322 51.731C39.7322 50.3001 40.3682 49.5389 41.4809 48.4879C40.4314 48.0444 40.0822 47.2499 40.0822 46.3911C40.0822 45.6912 40.4314 45.0556 41.0046 44.451C41.5766 43.8479 42.2122 43.243 42.9753 42.5438C41.4177 41.7807 40.2411 40.1274 40.2411 37.7745C40.2411 34.119 42.6575 31.6083 47.5207 31.6083C48.888 31.6083 49.7151 31.7339 50.4464 31.9261H56.6462V34.6275L53.7209 34.8503Z" fill="black"/>
<path d="M62.2393 29.0731C60.4267 29.0731 59.3779 28.0233 59.3779 26.2103C59.3779 24.3999 60.4267 23.4136 62.2393 23.4136C64.0833 23.4136 65.1324 24.3999 65.1324 26.2103C65.1324 28.0233 64.0833 29.0731 62.2393 29.0731ZM58.1374 48.1785V45.6682L59.7593 45.4465C60.2046 45.3822 60.2678 45.2872 60.2678 44.8094V35.4625C60.2678 35.1137 60.1728 34.8901 59.8539 34.7955L58.1374 34.1909L58.4869 31.6167H65.0685V44.8094C65.0685 45.319 65.0992 45.3822 65.5774 45.4465L67.1989 45.6682V48.1785H58.1374Z" fill="black"/>
<path d="M79.771 46.946C78.4033 47.613 76.4007 48.2172 74.5878 48.2172C70.8048 48.2172 69.3746 46.6928 69.3746 43.0987V34.7696C69.3746 34.5792 69.3746 34.4518 69.1193 34.4518H66.8943V31.6222C69.6928 31.3036 70.8048 29.9045 71.1543 26.4393H74.175V30.9551C74.175 31.1769 74.175 31.2729 74.4296 31.2729H78.9118V34.4518H74.175V42.0496C74.175 43.9254 74.6206 44.656 76.3364 44.656C77.2278 44.656 78.1487 44.4339 78.9118 44.1478L79.771 46.946Z" fill="black"/>
<path d="M32.6652 38.603L18.1289 24.0678C17.2924 23.2306 15.9346 23.2306 15.097 24.0678L12.0785 27.0863L15.9076 30.9153C16.7974 30.6147 17.8177 30.8163 18.5271 31.5257C19.2398 32.2395 19.44 33.2686 19.1321 34.1613L22.8223 37.8516C23.7151 37.544 24.7452 37.7431 25.4583 38.4572C26.4548 39.4534 26.4548 41.068 25.4583 42.0649C24.4614 43.0618 22.8468 43.0618 21.8495 42.0649C21.0999 41.3146 20.9147 40.2136 21.2942 39.2901L17.8528 35.8486L17.8524 44.9051C18.0953 45.0256 18.3247 45.186 18.5271 45.3876C19.5237 46.3838 19.5237 47.9984 18.5271 48.996C17.5302 49.9926 15.9149 49.9926 14.9195 48.996C13.9229 47.9984 13.9229 46.3838 14.9195 45.3876C15.1657 45.1418 15.4506 44.9559 15.7545 44.8309V35.6901C15.4506 35.5659 15.166 35.3811 14.9195 35.1334C14.1644 34.3794 13.9828 33.2715 14.3697 32.3444L10.5954 28.5694L0.628311 38.5358C-0.209315 39.3738 -0.209315 40.7316 0.628311 41.5688L15.1646 56.1044C16.0015 56.9416 17.3589 56.9416 18.1969 56.1044L32.6652 41.6364C33.5025 40.7988 33.5025 39.4402 32.6652 38.603Z" fill="black"/>
</svg>
