<svg width="52" height="27" viewBox="0 0 52 27" fill="none" xmlns="http://www.w3.org/2000/svg">
<line x1="41.4237" y1="17.7903" x2="50.5311" y2="17.7903" stroke="#5E5E5E"/>
<line x1="30.5536" y1="17.7903" x2="39.661" y2="17.7903" stroke="#5E5E5E"/>
<line x1="41.801" y1="-0.0378105" x2="49.3772" y2="8.67185" stroke="#6A6A6A"/>
<line x1="31.6183" y1="8.67709" x2="38.9855" y2="-0.0325644" stroke="#6A6A6A"/>
<line x1="31.3737" y1="17.6678" x2="39.3737" y2="26.6678" stroke="#6A6A6A"/>
<line x1="49.7528" y1="18.3392" x2="42.3674" y2="26.3392" stroke="#6A6A6A"/>
<line x1="41.4237" y1="9.08069" x2="50.5311" y2="9.08069" stroke="#5E5E5E"/>
<line x1="30.5536" y1="9.08069" x2="39.661" y2="9.08069" stroke="#5E5E5E"/>
<rect x="30.9151" y="0.5" width="8.32075" height="26" stroke="#969696"/>
<rect x="41.7076" y="0.5" width="8.32076" height="26" stroke="#969696"/>
<path fill-rule="evenodd" clip-rule="evenodd" d="M19.6226 16.5207V26V27H20.6226H27.9434H28.9434V26L28.9434 1V0H27.9434H19.6226L3.08874 26L2.45282 27H3.63789H11.7736L18.6226 16.2297L19.6226 14.6571V16.5207ZM11.2244 26L18.7788 14.1205L20.6226 11.2211V14.6571V26H27.9434L27.9434 1H20.1718L4.27381 26H11.2244Z" fill="#969696"/>
<path d="M19 12.4516H21.9379" stroke="white"/>
<path d="M20.4689 11L20.4689 13.9032" stroke="white"/>
</svg>
