<svg width="70" height="70" viewBox="0 0 70 70" fill="none" xmlns="http://www.w3.org/2000/svg">
<path d="M47.6586 47.1537C50.0804 46.9072 51.9177 44.8547 51.8341 42.3913C51.7508 39.9284 49.6628 37.9579 47.1575 37.9579H46.9906C44.4014 38.04 42.3975 40.1747 42.481 42.7199C42.5646 43.9515 43.0655 45.0187 43.8172 45.7577C40.9778 51.2588 36.6352 55.2818 30.1214 58.6482C25.6953 60.947 21.1024 61.7682 16.5094 61.1936C12.7513 60.7009 9.82846 59.059 7.99096 56.3491C5.31877 52.3261 5.06833 47.9745 7.32316 43.6231C8.90995 40.5031 11.415 38.204 13.0018 37.0545C12.6678 35.9872 12.1666 34.181 11.9161 32.8674C-0.192949 41.4883 1.05982 53.1473 4.73432 58.6482C7.49004 62.7535 13.0853 65.2988 19.2651 65.2988C20.9352 65.2988 22.6054 65.1343 24.2758 64.7242C34.9652 62.6714 43.0658 56.4314 47.6586 47.1537ZM62.3567 36.9727C56.0098 29.6653 46.6565 25.6423 35.9671 25.6423H34.6312C33.8796 24.1644 32.2928 23.179 30.539 23.179H30.3719C27.7832 23.2612 25.7793 25.3958 25.8626 27.9411C25.9462 30.4043 28.0337 32.3748 30.539 32.3748H30.7059C32.5432 32.2927 34.13 31.1432 34.7981 29.5831H36.3011C42.6482 29.5831 48.6607 31.3893 54.0892 34.9199C58.2645 37.6294 61.271 41.16 62.9412 45.4293C64.3609 48.8777 64.2773 52.2441 62.774 55.1178C60.4358 59.4691 56.511 61.8502 51.3332 61.8502C47.9927 61.8502 44.8195 60.865 43.1491 60.1261C42.2306 60.947 40.5602 62.2606 39.391 63.082C42.9822 64.724 46.6565 65.6272 50.164 65.6272C58.1809 65.6272 64.1104 61.2754 66.3653 56.924C68.7868 52.1618 68.6197 43.9515 62.3567 36.9727ZM19.9332 48.5491C20.0167 51.0123 22.1045 52.9826 24.6098 52.9826H24.7769C27.3656 52.9007 29.3698 50.766 29.2862 48.2208C29.2029 45.7575 27.1149 43.7872 24.6098 43.7872H24.4429C24.2758 43.7872 24.0251 43.7872 23.8584 43.869C20.4343 38.2861 19.0147 32.2105 19.5158 25.6421C19.8496 20.7158 21.5199 16.4462 24.4429 12.9156C26.8645 9.87776 31.5411 8.39991 34.7148 8.31801C43.5667 8.15368 47.3244 18.9914 47.5751 23.343C48.6607 23.5893 50.498 24.1642 51.7508 24.5748C50.7485 11.274 42.3975 4.37714 34.3807 4.37714C26.8645 4.37714 19.9332 9.71396 17.1772 17.596C13.3358 28.1052 15.8411 38.204 20.5176 46.1683C20.1003 46.7429 19.8496 47.6459 19.9332 48.5491Z" fill="black"/>
</svg>
