<svg width="70" height="70" viewBox="0 0 70 70" fill="none" xmlns="http://www.w3.org/2000/svg">
<g clip-path="url(#clip0_3_30)">
<path d="M0.665995 24.41C0.665995 24.41 -1.03895 23.1678 1.00698 21.509L5.77372 17.2006C5.77372 17.2006 7.1377 15.7501 8.57978 17.0139L52.5674 50.6771V66.8191C52.5674 66.8191 52.5461 69.354 49.3278 69.074L0.665995 24.41Z" fill="black"/>
<path d="M12.0037 34.8154L0.665794 45.2343C0.665794 45.2343 -0.499254 46.1105 0.665794 47.6758L5.92981 52.5155C5.92981 52.5155 7.1801 53.8726 9.02714 52.3288L21.047 43.1162L12.0037 34.8154Z" fill="black"/>
<path d="M31.9083 34.9011L52.7015 18.8522L52.5665 2.79607C52.5665 2.79607 51.6784 -0.708142 48.7162 1.11577L21.0463 26.5716L31.9083 34.9011Z" fill="black"/>
<path d="M49.327 69.0958C50.5345 70.345 51.998 69.9358 51.998 69.9358L68.2027 61.8648C70.2774 60.4357 69.986 58.662 69.986 58.662V10.4651C69.986 8.34677 67.8405 7.61434 67.8405 7.61434L53.7953 0.771099C50.7264 -1.14616 48.7162 1.11576 48.7162 1.11576C48.7162 1.11576 51.3018 -0.765578 52.5665 2.79606V66.5251C52.5665 66.9632 52.474 67.394 52.2894 67.7816C51.9199 68.5355 51.1172 69.2393 49.1919 68.945L49.327 69.0958Z" fill="black"/>
</g>
<defs>
<clipPath id="clip0_3_30">
<rect width="70" height="70" fill="white"/>
</clipPath>
</defs>
</svg>
